{
    "asset" : {
        "generator" : "Khronos glTF Blender I/O v3.4.50",
        "version" : "2.0"
    },
    "extensionsUsed" : [
        "KHR_materials_transmission"
    ],
    "scene" : 0,
    "scenes" : [
        {
            "name" : "Scene",
            "nodes" : [
                1,
                3,
                6
            ]
        }
    ],
    "nodes" : [
        {
            "name" : "truckFlat"
        },
        {
            "children" : [
                0
            ],
            "name" : "tmpParent",
            "rotation" : [
                0,
                -1,
                0,
                4.371138828673793e-08
            ]
        },
        {
            "name" : "truckFlat.001"
        },
        {
            "children" : [
                2
            ],
            "name" : "tmpParent.001",
            "rotation" : [
                0,
                -1,
                0,
                4.371138828673793e-08
            ]
        },
        {
            "mesh" : 0,
            "name" : "body"
        },
        {
            "children" : [
                4
            ],
            "name" : "truck"
        },
        {
            "children" : [
                5
            ],
            "name" : "tmpParent.002",
            "rotation" : [
                0,
                -1,
                0,
                4.371138828673793e-08
            ]
        }
    ],
    "materials" : [
        {
            "name" : "plastic.002",
            "pbrMetallicRoughness" : {
                "baseColorFactor" : [
                    0.08353149890899658,
                    0.08353149890899658,
                    0.08353149890899658,
                    1
                ],
                "metallicFactor" : 0
            }
        },
        {
            "name" : "paintGreen",
            "pbrMetallicRoughness" : {
                "baseColorFactor" : [
                    0.05838794633746147,
                    0.1901777684688568,
                    0.11694343388080597,
                    1
                ],
                "metallicFactor" : 0,
                "roughnessFactor" : 0.7941176295280457
            }
        },
        {
            "emissiveFactor" : [
                1,
                1,
                1
            ],
            "extensions" : {
                "KHR_materials_transmission" : {
                    "transmissionFactor" : 1
                }
            },
            "name" : "lightFront.001",
            "pbrMetallicRoughness" : {
                "baseColorFactor" : [
                    1,
                    0.9762833118438721,
                    0.9292452931404114,
                    1
                ],
                "metallicFactor" : 0
            }
        },
        {
            "name" : "_defaultMat.002",
            "pbrMetallicRoughness" : {
                "baseColorFactor" : [
                    0.2882961630821228,
                    0.2882961630821228,
                    0.2882961630821228,
                    1
                ],
                "roughnessFactor" : 0.6029411554336548
            }
        },
        {
            "name" : "window.001",
            "pbrMetallicRoughness" : {
                "baseColorFactor" : [
                    0.3532009422779083,
                    0.8066426515579224,
                    0.9372550845146179,
                    1
                ],
                "metallicFactor" : 0,
                "roughnessFactor" : 0
            }
        },
        {
            "emissiveFactor" : [
                1,
                0.34670406579971313,
                0.22696588933467865
            ],
            "name" : "lightBack.001",
            "pbrMetallicRoughness" : {
                "baseColorFactor" : [
                    1,
                    0.3490196168422699,
                    0.22745098173618317,
                    1
                ],
                "metallicFactor" : 0
            }
        }
    ],
    "meshes" : [
        {
            "name" : "Mesh body.003",
            "primitives" : [
                {
                    "attributes" : {
                        "POSITION" : 0,
                        "TEXCOORD_0" : 1,
                        "NORMAL" : 2
                    },
                    "indices" : 3,
                    "material" : 0
                },
                {
                    "attributes" : {
                        "POSITION" : 4,
                        "TEXCOORD_0" : 5,
                        "NORMAL" : 6
                    },
                    "indices" : 7,
                    "material" : 1
                },
                {
                    "attributes" : {
                        "POSITION" : 8,
                        "TEXCOORD_0" : 9,
                        "NORMAL" : 10
                    },
                    "indices" : 11,
                    "material" : 2
                },
                {
                    "attributes" : {
                        "POSITION" : 12,
                        "TEXCOORD_0" : 13,
                        "NORMAL" : 14
                    },
                    "indices" : 15,
                    "material" : 3
                },
                {
                    "attributes" : {
                        "POSITION" : 16,
                        "TEXCOORD_0" : 17,
                        "NORMAL" : 18
                    },
                    "indices" : 19,
                    "material" : 4
                },
                {
                    "attributes" : {
                        "POSITION" : 20,
                        "TEXCOORD_0" : 21,
                        "NORMAL" : 22
                    },
                    "indices" : 23,
                    "material" : 5
                }
            ]
        }
    ],
    "accessors" : [
        {
            "bufferView" : 0,
            "componentType" : 5126,
            "count" : 1597,
            "max" : [
                0.650537371635437,
                0.8006839156150818,
                1.4500000476837158
            ],
            "min" : [
                -0.6499999761581421,
                0.20000000298023224,
                -1.4500000476837158
            ],
            "type" : "VEC3"
        },
        {
            "bufferView" : 1,
            "componentType" : 5126,
            "count" : 1597,
            "type" : "VEC2"
        },
        {
            "bufferView" : 2,
            "componentType" : 5126,
            "count" : 1597,
            "type" : "VEC3"
        },
        {
            "bufferView" : 3,
            "componentType" : 5123,
            "count" : 1980,
            "type" : "SCALAR"
        },
        {
            "bufferView" : 4,
            "componentType" : 5126,
            "count" : 359,
            "max" : [
                0.7505373954772949,
                1.3001954555511475,
                1.4500001668930054
            ],
            "min" : [
                -0.75,
                0.5,
                -1.350000023841858
            ],
            "type" : "VEC3"
        },
        {
            "bufferView" : 5,
            "componentType" : 5126,
            "count" : 359,
            "type" : "VEC2"
        },
        {
            "bufferView" : 6,
            "componentType" : 5126,
            "count" : 359,
            "type" : "VEC3"
        },
        {
            "bufferView" : 7,
            "componentType" : 5123,
            "count" : 426,
            "type" : "SCALAR"
        },
        {
            "bufferView" : 8,
            "componentType" : 5126,
            "count" : 8,
            "max" : [
                0.550000011920929,
                0.6999022960662842,
                -1.350000023841858
            ],
            "min" : [
                -0.550000011920929,
                0.5,
                -1.350000023841858
            ],
            "type" : "VEC3"
        },
        {
            "bufferView" : 9,
            "componentType" : 5126,
            "count" : 8,
            "type" : "VEC2"
        },
        {
            "bufferView" : 10,
            "componentType" : 5126,
            "count" : 8,
            "type" : "VEC3"
        },
        {
            "bufferView" : 11,
            "componentType" : 5123,
            "count" : 12,
            "type" : "SCALAR"
        },
        {
            "bufferView" : 12,
            "componentType" : 5126,
            "count" : 12,
            "max" : [
                0.75,
                0.7996580004692078,
                -0.5229021906852722
            ],
            "min" : [
                -0.75,
                0.699999988079071,
                -0.5229021906852722
            ],
            "type" : "VEC3"
        },
        {
            "bufferView" : 13,
            "componentType" : 5126,
            "count" : 12,
            "type" : "VEC2"
        },
        {
            "bufferView" : 14,
            "componentType" : 5126,
            "count" : 12,
            "type" : "VEC3"
        },
        {
            "bufferView" : 15,
            "componentType" : 5123,
            "count" : 12,
            "type" : "SCALAR"
        },
        {
            "bufferView" : 16,
            "componentType" : 5126,
            "count" : 30,
            "max" : [
                0.550000011920929,
                1.221836805343628,
                0.21297025680541992
            ],
            "min" : [
                -0.550000011920929,
                0.800000011920929,
                -0.75
            ],
            "type" : "VEC3"
        },
        {
            "bufferView" : 17,
            "componentType" : 5126,
            "count" : 30,
            "type" : "VEC2"
        },
        {
            "bufferView" : 18,
            "componentType" : 5126,
            "count" : 30,
            "type" : "VEC3"
        },
        {
            "bufferView" : 19,
            "componentType" : 5123,
            "count" : 30,
            "type" : "SCALAR"
        },
        {
            "bufferView" : 20,
            "componentType" : 5126,
            "count" : 10,
            "max" : [
                0.550000011920929,
                0.699951171875,
                1.4500000476837158
            ],
            "min" : [
                -0.550000011920929,
                0.6000000238418579,
                1.4500000476837158
            ],
            "type" : "VEC3"
        },
        {
            "bufferView" : 21,
            "componentType" : 5126,
            "count" : 10,
            "type" : "VEC2"
        },
        {
            "bufferView" : 22,
            "componentType" : 5126,
            "count" : 10,
            "type" : "VEC3"
        },
        {
            "bufferView" : 23,
            "componentType" : 5123,
            "count" : 12,
            "type" : "SCALAR"
        }
    ],
    "bufferViews" : [
        {
            "buffer" : 0,
            "byteLength" : 19164,
            "byteOffset" : 0,
            "target" : 34962
        },
        {
            "buffer" : 0,
            "byteLength" : 12776,
            "byteOffset" : 19164,
            "target" : 34962
        },
        {
            "buffer" : 0,
            "byteLength" : 19164,
            "byteOffset" : 31940,
            "target" : 34962
        },
        {
            "buffer" : 0,
            "byteLength" : 3960,
            "byteOffset" : 51104,
            "target" : 34963
        },
        {
            "buffer" : 0,
            "byteLength" : 4308,
            "byteOffset" : 55064,
            "target" : 34962
        },
        {
            "buffer" : 0,
            "byteLength" : 2872,
            "byteOffset" : 59372,
            "target" : 34962
        },
        {
            "buffer" : 0,
            "byteLength" : 4308,
            "byteOffset" : 62244,
            "target" : 34962
        },
        {
            "buffer" : 0,
            "byteLength" : 852,
            "byteOffset" : 66552,
            "target" : 34963
        },
        {
            "buffer" : 0,
            "byteLength" : 96,
            "byteOffset" : 67404,
            "target" : 34962
        },
        {
            "buffer" : 0,
            "byteLength" : 64,
            "byteOffset" : 67500,
            "target" : 34962
        },
        {
            "buffer" : 0,
            "byteLength" : 96,
            "byteOffset" : 67564,
            "target" : 34962
        },
        {
            "buffer" : 0,
            "byteLength" : 24,
            "byteOffset" : 67660,
            "target" : 34963
        },
        {
            "buffer" : 0,
            "byteLength" : 144,
            "byteOffset" : 67684,
            "target" : 34962
        },
        {
            "buffer" : 0,
            "byteLength" : 96,
            "byteOffset" : 67828,
            "target" : 34962
        },
        {
            "buffer" : 0,
            "byteLength" : 144,
            "byteOffset" : 67924,
            "target" : 34962
        },
        {
            "buffer" : 0,
            "byteLength" : 24,
            "byteOffset" : 68068,
            "target" : 34963
        },
        {
            "buffer" : 0,
            "byteLength" : 360,
            "byteOffset" : 68092,
            "target" : 34962
        },
        {
            "buffer" : 0,
            "byteLength" : 240,
            "byteOffset" : 68452,
            "target" : 34962
        },
        {
            "buffer" : 0,
            "byteLength" : 360,
            "byteOffset" : 68692,
            "target" : 34962
        },
        {
            "buffer" : 0,
            "byteLength" : 60,
            "byteOffset" : 69052,
            "target" : 34963
        },
        {
            "buffer" : 0,
            "byteLength" : 120,
            "byteOffset" : 69112,
            "target" : 34962
        },
        {
            "buffer" : 0,
            "byteLength" : 80,
            "byteOffset" : 69232,
            "target" : 34962
        },
        {
            "buffer" : 0,
            "byteLength" : 120,
            "byteOffset" : 69312,
            "target" : 34962
        },
        {
            "buffer" : 0,
            "byteLength" : 24,
            "byteOffset" : 69432,
            "target" : 34963
        }
    ],
    "buffers" : [
        {
            "byteLength" : 69456,
            "uri" : "data:application/octet-stream;base64,"
        }
    ]
}
